<?xml version="1.0" encoding="UTF-8"?><svg id="Layer_1" xmlns="http://www.w3.org/2000/svg" viewBox="0 0 58.373 58.373"><defs><style>.cls-1{fill:#111;}.cls-2{fill:#8cba3b;stroke:#000;stroke-miterlimit:10;stroke-width:2.053px;}</style></defs><path class="cls-2" d="M1.026,10.413c0-5.184,4.203-9.387,9.387-9.387h37.547c5.184,0,9.387,4.203,9.387,9.387v37.547c0,5.184-4.203,9.387-9.387,9.387H10.413c-5.184,0-9.387-4.203-9.387-9.387V10.413Z"/><path class="cls-1" d="M30.843,37.896c-.455.451-1.008.677-1.657.677s-1.202-.226-1.657-.677c-.455-.451-.683-.999-.683-1.641,0-.643.228-1.19.683-1.641.455-.451,1.008-.677,1.657-.677s1.202.226,1.657.677c.455.451.683.999.683,1.641s-.228,1.19-.683,1.641ZM40.782,28.048c-1.615-1.6-3.426-2.794-5.435-3.58-2.009-.787-4.062-1.18-6.16-1.18-2.098,0-4.151.393-6.16,1.18-2.009.786-3.82,1.98-5.435,3.58l-2.485-2.462c1.961-1.942,4.155-3.392,6.585-4.35,2.429-.958,4.928-1.436,7.495-1.436,2.567,0,5.067.479,7.495,1.436,2.43.957,4.624,2.407,6.585,4.35l-2.485,2.462ZM35.813,32.972c-.925-.916-1.956-1.597-3.095-2.041-1.139-.445-2.316-.667-3.531-.667s-2.391.222-3.531.667c-1.138.444-2.171,1.125-3.095,2.041l-2.485-2.462c1.271-1.258,2.693-2.195,4.266-2.811,1.573-.615,3.188-.923,4.845-.923,1.657,0,3.271.308,4.846.923,1.573.616,2.996,1.552,4.265,2.811l-2.485,2.462Z"/></svg>