<?xml version="1.0" encoding="UTF-8"?><svg id="Layer_1" xmlns="http://www.w3.org/2000/svg" viewBox="0 0 58.373 58.373"><defs><style>.cls-1{fill:#111;}.cls-2{fill:#ff7b00;stroke:#000;stroke-miterlimit:10;stroke-width:2.053px;}</style></defs><path class="cls-2" d="M1.026,10.413c0-5.184,4.203-9.387,9.387-9.387h37.547c5.184,0,9.387,4.203,9.387,9.387v37.547c0,5.184-4.203,9.387-9.387,9.387H10.413c-5.184,0-9.387-4.203-9.387-9.387V10.413Z"/><path class="cls-1" d="M40.92,29.187c0-6.453-5.28-11.734-11.733-11.734-6.453,0-11.734,5.28-11.734,11.733h10.56s0,8.213,0,8.213c0,.704-.469,1.173-1.173,1.173-.704,0-1.173-.469-1.173-1.173v-1.173s-2.347,0-2.347,0v1.173c0,1.995,1.525,3.52,3.52,3.52,1.995,0,3.52-1.525,3.52-3.52v-8.213s10.56,0,10.56,0Z"/></svg>
