<?xml version="1.0" encoding="UTF-8"?><svg id="Layer_1" xmlns="http://www.w3.org/2000/svg" viewBox="0 0 58.373 58.373"><defs><style>.cls-1{fill:#111;}.cls-2{fill:#ee6dbb;stroke:#000;stroke-miterlimit:10;stroke-width:2.053px;}</style></defs><path class="cls-2" d="M1.026,10.413c0-5.184,4.203-9.387,9.387-9.387h37.547c5.184,0,9.387,4.203,9.387,9.387v37.547c0,5.184-4.203,9.387-9.387,9.387H10.413c-5.184,0-9.387-4.203-9.387-9.387V10.413Z"/><path class="cls-1" d="M20.973,42.092v-25.814s16.427,0,16.427,0v25.814s-16.427,0-16.427,0ZM29.187,39.158c.332,0,.611-.112.837-.337.224-.225.337-.504.337-.836,0-.332-.113-.611-.337-.836-.225-.225-.505-.337-.837-.337-.332,0-.611.112-.837.337-.224.225-.337.504-.337.836,0,.332.113.611.337.836.225.225.505.337.837.337ZM23.32,33.878h11.733s0-11.733,0-11.733h-11.733s0,11.733,0,11.733Z"/></svg>